{
  "accessors": [
    {
      "bufferView": 2,
      "componentType": 5126,
      "count": 65532,
      "max": [
        1.4085912704467773,
        0.7083805203437805,
        0.8133257031440735
      ],
      "min": [
        -1.5214954614639282,
        -2.1214447021484375,
        0.07613413780927658
      ],
      "type": "VEC3"
    },
    {
      "bufferView": 2,
      "byteOffset": 786384,
      "componentType": 5126,
      "count": 65532,
      "max": [
        0.9883802533149719,
        0.9930170774459839,
        1.0
      ],
      "min": [
        -0.999998152256012,
        -0.9999973773956299,
        -0.9633542895317078
      ],
      "type": "VEC3"
    },
    {
      "bufferView": 1,
      "componentType": 5126,
      "count": 65532,
      "max": [
        0.9996047019958496,
        0.9134153723716736
      ],
      "min": [
        0.000244140625,
        0.00032367242965847254
      ],
      "type": "VEC2"
    },
    {
      "bufferView": 1,
      "byteOffset": 524256,
      "componentType": 5126,
      "count": 65532,
      "max": [
        0.9996047019958496,
        0.9134153723716736
      ],
      "min": [
        0.000244140625,
        0.00032367242965847254
      ],
      "type": "VEC2"
    },
    {
      "bufferView": 0,
      "componentType": 5125,
      "count": 321306,
      "type": "SCALAR"
    },
    {
      "bufferView": 2,
      "byteOffset": 1572768,
      "componentType": 5126,
      "count": 65532,
      "max": [
        1.5228768587112427,
        0.5953247547149658,
        0.8021903038024902
      ],
      "min": [
        -1.0208617448806763,
        -2.1236648559570313,
        -3.7254624203342246e-06
      ],
      "type": "VEC3"
    },
    {
      "bufferView": 2,
      "byteOffset": 2359152,
      "componentType": 5126,
      "count": 65532,
      "max": [
        1.0,
        0.9309074282646179,
        0.9999998807907104
      ],
      "min": [
        -0.9999894499778748,
        -0.9999998807907104,
        -1.0
      ],
      "type": "VEC3"
    },
    {
      "bufferView": 1,
      "byteOffset": 1048512,
      "componentType": 5126,
      "count": 65532,
      "max": [
        0.9996318221092224,
        0.9216307401657104
      ],
      "min": [
        0.000244140625,
        0.00026317371521145105
      ],
      "type": "VEC2"
    },
    {
      "bufferView": 1,
      "byteOffset": 1572768,
      "componentType": 5126,
      "count": 65532,
      "max": [
        0.9996318221092224,
        0.9216307401657104
      ],
      "min": [
        0.000244140625,
        0.00026317371521145105
      ],
      "type": "VEC2"
    },
    {
      "bufferView": 0,
      "byteOffset": 1285224,
      "componentType": 5125,
      "count": 315420,
      "type": "SCALAR"
    },
    {
      "bufferView": 2,
      "byteOffset": 3145536,
      "componentType": 5126,
      "count": 65532,
      "max": [
        1.5228768587112427,
        1.3634889125823975,
        0.8103877305984497
      ],
      "min": [
        -1.5228770971298218,
        -1.340572714805603,
        -3.7254624203342246e-06
      ],
      "type": "VEC3"
    },
    {
      "bufferView": 2,
      "byteOffset": 3931920,
      "componentType": 5126,
      "count": 65532,
      "max": [
        1.0,
        0.9999936819076538,
        1.0
      ],
      "min": [
        -0.9997817873954773,
        -0.9999826550483704,
        -1.0
      ],
      "type": "VEC3"
    },
    {
      "bufferView": 1,
      "byteOffset": 2097024,
      "componentType": 5126,
      "count": 65532,
      "max": [
        0.999705970287323,
        0.9802244901657104
      ],
      "min": [
        0.000244140625,
        0.00024934543762356043
      ],
      "type": "VEC2"
    },
    {
      "bufferView": 1,
      "byteOffset": 2621280,
      "componentType": 5126,
      "count": 65532,
      "max": [
        0.999705970287323,
        0.9802244901657104
      ],
      "min": [
        0.000244140625,
        0.00024934543762356043
      ],
      "type": "VEC2"
    },
    {
      "bufferView": 0,
      "byteOffset": 2546904,
      "componentType": 5125,
      "count": 332244,
      "type": "SCALAR"
    },
    {
      "bufferView": 2,
      "byteOffset": 4718304,
      "componentType": 5126,
      "count": 65532,
      "max": [
        1.5209060907363892,
        2.1236650943756104,
        0.7601069211959839
      ],
      "min": [
        -1.5228770971298218,
        -0.48575359582901,
        -3.0033465918677393e-06
      ],
      "type": "VEC3"
    },
    {
      "bufferView": 2,
      "byteOffset": 5504688,
      "componentType": 5126,
      "count": 65532,
      "max": [
        0.9710589647293091,
        0.9999998807907104,
        1.0
      ],
      "min": [
        -1.0,
        -0.9678316116333008,
        -1.0
      ],
      "type": "VEC3"
    },
    {
      "bufferView": 1,
      "byteOffset": 3145536,
      "componentType": 5126,
      "count": 65532,
      "max": [
        0.9996373057365417,
        0.8728026151657104
      ],
      "min": [
        0.00026970537146553397,
        0.00033559335861355066
      ],
      "type": "VEC2"
    },
    {
      "bufferView": 1,
      "byteOffset": 3669792,
      "componentType": 5126,
      "count": 65532,
      "max": [
        0.9996373057365417,
        0.8728026151657104
      ],
      "min": [
        0.00026970537146553397,
        0.00033559335861355066
      ],
      "type": "VEC2"
    },
    {
      "bufferView": 0,
      "byteOffset": 3875880,
      "componentType": 5125,
      "count": 328215,
      "type": "SCALAR"
    },
    {
      "bufferView": 2,
      "byteOffset": 6291072,
      "componentType": 5126,
      "count": 65532,
      "max": [
        1.0307343006134033,
        1.5860567092895508,
        0.790338933467865
      ],
      "min": [
        -0.886140763759613,
        0.18412931263446808,
        0.08924532681703568
      ],
      "type": "VEC3"
    },
    {
      "bufferView": 2,
      "byteOffset": 7077456,
      "componentType": 5126,
      "count": 65532,
      "max": [
        0.9705805778503418,
        0.9999995231628418,
        1.0
      ],
      "min": [
        -1.0,
        -0.9990941286087036,
        -0.9905601143836975
      ],
      "type": "VEC3"
    },
    {
      "bufferView": 1,
      "byteOffset": 4194048,
      "componentType": 5126,
      "count": 65532,
      "max": [
        0.9997321367263794,
        0.9150083065032959
      ],
      "min": [
        0.000244140625,
        0.0002501799026504159
      ],
      "type": "VEC2"
    },
    {
      "bufferView": 1,
      "byteOffset": 4718304,
      "componentType": 5126,
      "count": 65532,
      "max": [
        0.9997321367263794,
        0.9150083065032959
      ],
      "min": [
        0.000244140625,
        0.0002501799026504159
      ],
      "type": "VEC2"
    },
    {
      "bufferView": 0,
      "byteOffset": 5188740,
      "componentType": 5125,
      "count": 319932,
      "type": "SCALAR"
    },
    {
      "bufferView": 2,
      "byteOffset": 7863840,
      "componentType": 5126,
      "count": 65532,
      "max": [
        1.4114911556243896,
        1.6088391542434692,
        0.8099622130393982
      ],
      "min": [
        -1.5228770971298218,
        -0.005727856419980526,
        -3.0200392302504042e-06
      ],
      "type": "VEC3"
    },
    {
      "bufferView": 2,
      "byteOffset": 8650224,
      "componentType": 5126,
      "count": 65532,
      "max": [
        0.9999989867210388,
        0.9999998807907104,
        1.0
      ],
      "min": [
        -0.9999969601631165,
        -0.9990466833114624,
        -1.0
      ],
      "type": "VEC3"
    },
    {
      "bufferView": 1,
      "byteOffset": 5242560,
      "componentType": 5126,
      "count": 65532,
      "max": [
        0.9996943473815918,
        0.8937274217605591
      ],
      "min": [
        0.000244140625,
        0.0002907706657424569
      ],
      "type": "VEC2"
    },
    {
      "bufferView": 1,
      "byteOffset": 5766816,
      "componentType": 5126,
      "count": 65532,
      "max": [
        0.9996943473815918,
        0.8937274217605591
      ],
      "min": [
        0.000244140625,
        0.0002907706657424569
      ],
      "type": "VEC2"
    },
    {
      "bufferView": 0,
      "byteOffset": 6468468,
      "componentType": 5125,
      "count": 314046,
      "type": "SCALAR"
    },
    {
      "bufferView": 2,
      "byteOffset": 9436608,
      "componentType": 5126,
      "count": 65532,
      "max": [
        1.5228768587112427,
        1.2822707891464233,
        0.8133257031440735
      ],
      "min": [
        -1.5228772163391113,
        -2.1228079795837402,
        -3.6591557091014693e-06
      ],
      "type": "VEC3"
    },
    {
      "bufferView": 2,
      "byteOffset": 10222992,
      "componentType": 5126,
      "count": 65532,
      "max": [
        0.9999996423721313,
        0.9999910593032837,
        1.0
      ],
      "min": [
        -0.9999996423721313,
        -0.9998515844345093,
        -1.0
      ],
      "type": "VEC3"
    },
    {
      "bufferView": 1,
      "byteOffset": 6291072,
      "componentType": 5126,
      "count": 65532,
      "max": [
        0.9997304677963257,
        0.9313963651657104
      ],
      "min": [
        0.000244140625,
        0.00024421943817287683
      ],
      "type": "VEC2"
    },
    {
      "bufferView": 1,
      "byteOffset": 6815328,
      "componentType": 5126,
      "count": 65532,
      "max": [
        0.9997304677963257,
        0.9313963651657104
      ],
      "min": [
        0.000244140625,
        0.00024421943817287683
      ],
      "type": "VEC2"
    },
    {
      "bufferView": 0,
      "byteOffset": 7724652,
      "componentType": 5125,
      "count": 321012,
      "type": "SCALAR"
    },
    {
      "bufferView": 2,
      "byteOffset": 11009376,
      "componentType": 5126,
      "count": 65532,
      "max": [
        1.5228768587112427,
        2.1461946964263916,
        0.41832980513572693
      ],
      "min": [
        -1.5411345958709717,
        -2.1236650943756104,
        -3.488311449473258e-06
      ],
      "type": "VEC3"
    },
    {
      "bufferView": 2,
      "byteOffset": 11795760,
      "componentType": 5126,
      "count": 65532,
      "max": [
        1.0,
        0.9998540878295898,
        1.0
      ],
      "min": [
        -0.999997615814209,
        -0.9999768137931824,
        -1.0
      ],
      "type": "VEC3"
    },
    {
      "bufferView": 1,
      "byteOffset": 7339584,
      "componentType": 5126,
      "count": 65532,
      "max": [
        0.9996944665908813,
        0.9655760526657104
      ],
      "min": [
        0.000244140625,
        0.00028099550399929285
      ],
      "type": "VEC2"
    },
    {
      "bufferView": 1,
      "byteOffset": 7863840,
      "componentType": 5126,
      "count": 65532,
      "max": [
        0.9996944665908813,
        0.9655760526657104
      ],
      "min": [
        0.000244140625,
        0.00028099550399929285
      ],
      "type": "VEC2"
    },
    {
      "bufferView": 0,
      "byteOffset": 9008700,
      "componentType": 5125,
      "count": 282399,
      "type": "SCALAR"
    },
    {
      "bufferView": 2,
      "byteOffset": 12582144,
      "componentType": 5126,
      "count": 65532,
      "max": [
        1.5228768587112427,
        1.5142524242401123,
        0.8019660711288452
      ],
      "min": [
        -1.522839069366455,
        -2.1236648559570313,
        -3.2375205591961276e-06
      ],
      "type": "VEC3"
    },
    {
      "bufferView": 2,
      "byteOffset": 13368528,
      "componentType": 5126,
      "count": 65532,
      "max": [
        0.999999463558197,
        0.9994533658027649,
        0.9999997019767761
      ],
      "min": [
        -0.999998152256012,
        -0.9999032616615295,
        -1.0
      ],
      "type": "VEC3"
    },
    {
      "bufferView": 1,
      "byteOffset": 8388096,
      "componentType": 5126,
      "count": 65532,
      "max": [
        0.9997416734695435,
        0.8895428776741028
      ],
      "min": [
        0.000244140625,
        0.00025310053024441004
      ],
      "type": "VEC2"
    },
    {
      "bufferView": 1,
      "byteOffset": 8912352,
      "componentType": 5126,
      "count": 65532,
      "max": [
        0.9997416734695435,
        0.8895428776741028
      ],
      "min": [
        0.000244140625,
        0.00025310053024441004
      ],
      "type": "VEC2"
    },
    {
      "bufferView": 0,
      "byteOffset": 10138296,
      "componentType": 5125,
      "count": 292953,
      "type": "SCALAR"
    },
    {
      "bufferView": 2,
      "byteOffset": 14154912,
      "componentType": 5126,
      "count": 41018,
      "max": [
        0.8437207341194153,
        1.092082142829895,
        0.7994582653045654
      ],
      "min": [
        -1.5228773355484009,
        -1.5550059080123901,
        -2.6653810891730245e-06
      ],
      "type": "VEC3"
    },
    {
      "bufferView": 2,
      "byteOffset": 14647128,
      "componentType": 5126,
      "count": 41018,
      "max": [
        0.9989129304885864,
        0.999937117099762,
        1.0
      ],
      "min": [
        -0.9999972581863403,
        -0.9999973773956299,
        -1.0
      ],
      "type": "VEC3"
    },
    {
      "bufferView": 1,
      "byteOffset": 9436608,
      "componentType": 5126,
      "count": 41018,
      "max": [
        0.9997116327285767,
        0.8659666776657104
      ],
      "min": [
        0.000244140625,
        0.000244398252107203
      ],
      "type": "VEC2"
    },
    {
      "bufferView": 1,
      "byteOffset": 9764752,
      "componentType": 5126,
      "count": 41018,
      "max": [
        0.9997116327285767,
        0.8659666776657104
      ],
      "min": [
        0.000244140625,
        0.000244398252107203
      ],
      "type": "VEC2"
    },
    {
      "bufferView": 0,
      "byteOffset": 11310108,
      "componentType": 5125,
      "count": 172473,
      "type": "SCALAR"
    }
  ],
  "asset": {
    "extras": {
      "author": "b1ackt3a (https://sketchfab.com/b1ackt3a)",
      "license": "CC-BY-4.0 (http://creativecommons.org/licenses/by/4.0/)",
      "source": "https://sketchfab.com/3d-models/skate-ramp-vienna-3604d92de2484e5bb223afa571b77eb2",
      "title": "Skate Ramp Vienna"
    },
    "generator": "Sketchfab-15.25.0",
    "version": "2.0"
  },
  "bufferViews": [
    {
      "buffer": 0,
      "byteLength": 12000000,
      "name": "floatBufferViews",
      "target": 34963
    },
    {
      "buffer": 0,
      "byteLength": 10092896,
      "byteOffset": 12000000,
      "byteStride": 8,
      "name": "floatBufferViews",
      "target": 34962
    },
    {
      "buffer": 0,
      "byteLength": 15139344,
      "byteOffset": 22092896,
      "byteStride": 12,
      "name": "floatBufferViews",
      "target": 34962
    }
  ],
  "buffers": [
    {
      "byteLength": 37232240,
      "uri": "scene.bin"
    }
  ],
  "extensionsUsed": [
    "KHR_materials_unlit"
  ],
  "images": [
    {
      "uri": "textures/tex_u1_v1_baseColor.jpeg"
    }
  ],
  "materials": [
    {
      "doubleSided": true,
      "extensions": {
        "KHR_materials_unlit": {}
      },
      "name": "tex_u1_v1",
      "pbrMetallicRoughness": {
        "baseColorTexture": {
          "index": 0
        },
        "metallicFactor": 0.0
      }
    }
  ],
  "meshes": [
    {
      "name": "model_tex_u1_v1_0",
      "primitives": [
        {
          "attributes": {
            "NORMAL": 1,
            "POSITION": 0,
            "TEXCOORD_0": 2,
            "TEXCOORD_1": 3
          },
          "indices": 4,
          "material": 0,
          "mode": 4
        }
      ]
    },
    {
      "name": "model_tex_u1_v1_0",
      "primitives": [
        {
          "attributes": {
            "NORMAL": 6,
            "POSITION": 5,
            "TEXCOORD_0": 7,
            "TEXCOORD_1": 8
          },
          "indices": 9,
          "material": 0,
          "mode": 4
        }
      ]
    },
    {
      "name": "model_tex_u1_v1_0",
      "primitives": [
        {
          "attributes": {
            "NORMAL": 11,
            "POSITION": 10,
            "TEXCOORD_0": 12,
            "TEXCOORD_1": 13
          },
          "indices": 14,
          "material": 0,
          "mode": 4
        }
      ]
    },
    {
      "name": "model_tex_u1_v1_0",
      "primitives": [
        {
          "attributes": {
            "NORMAL": 16,
            "POSITION": 15,
            "TEXCOORD_0": 17,
            "TEXCOORD_1": 18
          },
          "indices": 19,
          "material": 0,
          "mode": 4
        }
      ]
    },
    {
      "name": "model_tex_u1_v1_0",
      "primitives": [
        {
          "attributes": {
            "NORMAL": 21,
            "POSITION": 20,
            "TEXCOORD_0": 22,
            "TEXCOORD_1": 23
          },
          "indices": 24,
          "material": 0,
          "mode": 4
        }
      ]
    },
    {
      "name": "model_tex_u1_v1_0",
      "primitives": [
        {
          "attributes": {
            "NORMAL": 26,
            "POSITION": 25,
            "TEXCOORD_0": 27,
            "TEXCOORD_1": 28
          },
          "indices": 29,
          "material": 0,
          "mode": 4
        }
      ]
    },
    {
      "name": "model_tex_u1_v1_0",
      "primitives": [
        {
          "attributes": {
            "NORMAL": 31,
            "POSITION": 30,
            "TEXCOORD_0": 32,
            "TEXCOORD_1": 33
          },
          "indices": 34,
          "material": 0,
          "mode": 4
        }
      ]
    },
    {
      "name": "model_tex_u1_v1_0",
      "primitives": [
        {
          "attributes": {
            "NORMAL": 36,
            "POSITION": 35,
            "TEXCOORD_0": 37,
            "TEXCOORD_1": 38
          },
          "indices": 39,
          "material": 0,
          "mode": 4
        }
      ]
    },
    {
      "name": "model_tex_u1_v1_0",
      "primitives": [
        {
          "attributes": {
            "NORMAL": 41,
            "POSITION": 40,
            "TEXCOORD_0": 42,
            "TEXCOORD_1": 43
          },
          "indices": 44,
          "material": 0,
          "mode": 4
        }
      ]
    },
    {
      "name": "model_tex_u1_v1_0",
      "primitives": [
        {
          "attributes": {
            "NORMAL": 46,
            "POSITION": 45,
            "TEXCOORD_0": 47,
            "TEXCOORD_1": 48
          },
          "indices": 49,
          "material": 0,
          "mode": 4
        }
      ]
    }
  ],
  "nodes": [
    {
      "children": [
        1
      ],
      "matrix": [
        1.0,
        0.0,
        0.0,
        0.0,
        0.0,
        2.220446049250313e-16,
        -1.0,
        0.0,
        0.0,
        1.0,
        2.220446049250313e-16,
        0.0,
        0.0,
        0.0,
        0.0,
        1.0
      ],
      "name": "Sketchfab_model"
    },
    {
      "children": [
        2
      ],
      "matrix": [
        1.0,
        0.0,
        0.0,
        0.0,
        0.0,
        0.0,
        1.0,
        0.0,
        0.0,
        -1.0,
        0.0,
        0.0,
        0.0,
        0.0,
        0.0,
        1.0
      ],
      "name": "model.fbx"
    },
    {
      "children": [
        3
      ],
      "name": "RootNode"
    },
    {
      "children": [
        4,
        5,
        6,
        7,
        8,
        9,
        10,
        11,
        12,
        13
      ],
      "matrix": [
        1.0,
        0.0,
        0.0,
        0.0,
        0.0,
        2.220446049250313e-16,
        -1.0,
        0.0,
        0.0,
        1.0,
        2.220446049250313e-16,
        0.0,
        0.0,
        0.0,
        0.0,
        1.0
      ],
      "name": "model"
    },
    {
      "mesh": 0,
      "name": "model_tex_u1_v1_0"
    },
    {
      "mesh": 1,
      "name": "model_tex_u1_v1_0"
    },
    {
      "mesh": 2,
      "name": "model_tex_u1_v1_0"
    },
    {
      "mesh": 3,
      "name": "model_tex_u1_v1_0"
    },
    {
      "mesh": 4,
      "name": "model_tex_u1_v1_0"
    },
    {
      "mesh": 5,
      "name": "model_tex_u1_v1_0"
    },
    {
      "mesh": 6,
      "name": "model_tex_u1_v1_0"
    },
    {
      "mesh": 7,
      "name": "model_tex_u1_v1_0"
    },
    {
      "mesh": 8,
      "name": "model_tex_u1_v1_0"
    },
    {
      "mesh": 9,
      "name": "model_tex_u1_v1_0"
    }
  ],
  "samplers": [
    {
      "magFilter": 9729,
      "minFilter": 9987,
      "wrapS": 10497,
      "wrapT": 10497
    }
  ],
  "scene": 0,
  "scenes": [
    {
      "name": "Sketchfab_Scene",
      "nodes": [
        0
      ]
    }
  ],
  "textures": [
    {
      "sampler": 0,
      "source": 0
    }
  ]
}
