{
  "accessors": [
    {
      "bufferView": 2,
      "componentType": 5126,
      "count": 203,
      "max": [
        -2.0420327186584473,
        1.5455392599105835,
        1.0606998205184937
      ],
      "min": [
        -2.2067418098449707,
        1.3771393299102783,
        0.8249999284744263
      ],
      "type": "VEC3"
    },
    {
      "bufferView": 2,
      "byteOffset": 2436,
      "componentType": 5126,
      "count": 203,
      "max": [
        0.9972216486930847,
        0.9969143867492676,
        0.9988858103752136
      ],
      "min": [
        -0.9978986978530884,
        -0.9992258548736572,
        -0.9612261056900024
      ],
      "type": "VEC3"
    },
    {
      "bufferView": 1,
      "componentType": 5126,
      "count": 203,
      "max": [
        0.9887999892234802,
        0.988099992275238
      ],
      "min": [
        0.012799999676644802,
        0.023000000044703484
      ],
      "type": "VEC2"
    },
    {
      "bufferView": 0,
      "componentType": 5125,
      "count": 1122,
      "type": "SCALAR"
    },
    {
      "bufferView": 2,
      "byteOffset": 4872,
      "componentType": 5126,
      "count": 2286,
      "max": [
        -0.2705690264701843,
        1.6181482076644897,
        0.8775219321250916
      ],
      "min": [
        -2.3518548011779785,
        1.3605092763900757,
        -0.010655062273144722
      ],
      "type": "VEC3"
    },
    {
      "bufferView": 2,
      "byteOffset": 32304,
      "componentType": 5126,
      "count": 2286,
      "max": [
        0.9992258548736572,
        0.9996901154518127,
        0.99885493516922
      ],
      "min": [
        -0.9981144070625305,
        -0.9998760223388672,
        -0.9998760223388672
      ],
      "type": "VEC3"
    },
    {
      "bufferView": 1,
      "byteOffset": 1624,
      "componentType": 5126,
      "count": 2286,
      "max": [
        0.993399977684021,
        0.9886000156402588
      ],
      "min": [
        0.009499999694526196,
        0.007199999876320362
      ],
      "type": "VEC2"
    },
    {
      "bufferView": 0,
      "byteOffset": 4488,
      "componentType": 5125,
      "count": 9684,
      "type": "SCALAR"
    },
    {
      "bufferView": 2,
      "byteOffset": 59736,
      "componentType": 5126,
      "count": 203,
      "max": [
        -1.2277840375900269,
        1.5455392599105835,
        1.0606998205184937
      ],
      "min": [
        -1.3924930095672607,
        1.3771393299102783,
        0.8249999284744263
      ],
      "type": "VEC3"
    },
    {
      "bufferView": 2,
      "byteOffset": 62172,
      "componentType": 5126,
      "count": 203,
      "max": [
        0.9972216486930847,
        0.9969143867492676,
        0.9988858103752136
      ],
      "min": [
        -0.9978986978530884,
        -0.9992258548736572,
        -0.9612261056900024
      ],
      "type": "VEC3"
    },
    {
      "bufferView": 1,
      "byteOffset": 19912,
      "componentType": 5126,
      "count": 203,
      "max": [
        0.9887999892234802,
        0.988099992275238
      ],
      "min": [
        0.012799999676644802,
        0.023000000044703484
      ],
      "type": "VEC2"
    },
    {
      "bufferView": 0,
      "byteOffset": 43224,
      "componentType": 5125,
      "count": 1122,
      "type": "SCALAR"
    },
    {
      "bufferView": 2,
      "byteOffset": 64608,
      "componentType": 5126,
      "count": 1143,
      "max": [
        -1.1357090473175049,
        1.5842212438583374,
        0.8775219321250916
      ],
      "min": [
        -1.5376060009002686,
        1.3605092763900757,
        -0.010655060410499573
      ],
      "type": "VEC3"
    },
    {
      "bufferView": 2,
      "byteOffset": 78324,
      "componentType": 5126,
      "count": 1143,
      "max": [
        0.9992258548736572,
        0.9996901154518127,
        0.99885493516922
      ],
      "min": [
        -0.9981144070625305,
        -0.9998760223388672,
        -0.9998760223388672
      ],
      "type": "VEC3"
    },
    {
      "bufferView": 1,
      "byteOffset": 21536,
      "componentType": 5126,
      "count": 1143,
      "max": [
        0.993399977684021,
        0.9886000156402588
      ],
      "min": [
        0.009499999694526196,
        0.007199999876320362
      ],
      "type": "VEC2"
    },
    {
      "bufferView": 0,
      "byteOffset": 47712,
      "componentType": 5125,
      "count": 4842,
      "type": "SCALAR"
    },
    {
      "bufferView": 2,
      "byteOffset": 92040,
      "componentType": 5126,
      "count": 203,
      "max": [
        -0.3626440167427063,
        1.5794662237167358,
        1.0606998205184937
      ],
      "min": [
        -0.527353048324585,
        1.4110662937164307,
        0.8249999284744263
      ],
      "type": "VEC3"
    },
    {
      "bufferView": 2,
      "byteOffset": 94476,
      "componentType": 5126,
      "count": 203,
      "max": [
        0.9972216486930847,
        0.9969143867492676,
        0.9988858103752136
      ],
      "min": [
        -0.9978986978530884,
        -0.9992258548736572,
        -0.9612261056900024
      ],
      "type": "VEC3"
    },
    {
      "bufferView": 1,
      "byteOffset": 30680,
      "componentType": 5126,
      "count": 203,
      "max": [
        0.9887999892234802,
        0.988099992275238
      ],
      "min": [
        0.012799999676644802,
        0.023000000044703484
      ],
      "type": "VEC2"
    },
    {
      "bufferView": 0,
      "byteOffset": 67080,
      "componentType": 5125,
      "count": 1122,
      "type": "SCALAR"
    }
  ],
  "asset": {
    "extras": {
      "author": "Home Design 3D (https://sketchfab.com/homedesign3d)",
      "license": "CC-BY-NC-SA-4.0 (http://creativecommons.org/licenses/by-nc-sa/4.0/)",
      "source": "https://sketchfab.com/3d-models/kid-maps-people-omg-b9537935521a4201b2d8f83820a8d07c",
      "title": "kid maps PEOPLE OMG"
    },
    "generator": "Sketchfab-12.82.3",
    "version": "2.0"
  },
  "bufferViews": [
    {
      "buffer": 0,
      "byteLength": 71568,
      "name": "floatBufferViews",
      "target": 34963
    },
    {
      "buffer": 0,
      "byteLength": 32304,
      "byteOffset": 71568,
      "byteStride": 8,
      "name": "floatBufferViews",
      "target": 34962
    },
    {
      "buffer": 0,
      "byteLength": 96912,
      "byteOffset": 103872,
      "byteStride": 12,
      "name": "floatBufferViews",
      "target": 34962
    }
  ],
  "buffers": [
    {
      "byteLength": 200784,
      "uri": "scene.bin"
    }
  ],
  "images": [
    {
      "uri": "textures/boy_001___boymaterial__38_baseColor.jpeg"
    },
    {
      "uri": "textures/boy_001___boymaterial__40_baseColor.jpeg"
    },
    {
      "uri": "textures/kid_face_1d_homedes3d_baseColor.jpeg"
    },
    {
      "uri": "textures/kids_outfit_homedes3d_baseColor.jpeg"
    },
    {
      "uri": "textures/new_kid_baseColor.jpeg"
    }
  ],
  "materials": [
    {
      "doubleSided": true,
      "name": "boy_001___boymaterial__38",
      "pbrMetallicRoughness": {
        "baseColorTexture": {
          "index": 0
        },
        "metallicFactor": 0.0
      }
    },
    {
      "doubleSided": true,
      "name": "boy_001___boymaterial__40",
      "pbrMetallicRoughness": {
        "baseColorTexture": {
          "index": 1
        },
        "metallicFactor": 0.0
      }
    },
    {
      "doubleSided": true,
      "name": "kid_face_1d_homedes3d",
      "pbrMetallicRoughness": {
        "baseColorTexture": {
          "index": 2
        },
        "metallicFactor": 0.0
      }
    },
    {
      "doubleSided": true,
      "name": "kids_outfit_homedes3d",
      "pbrMetallicRoughness": {
        "baseColorTexture": {
          "index": 3
        },
        "metallicFactor": 0.0
      }
    },
    {
      "doubleSided": true,
      "name": "new_kid",
      "pbrMetallicRoughness": {
        "baseColorTexture": {
          "index": 4
        },
        "metallicFactor": 0.0
      }
    }
  ],
  "meshes": [
    {
      "name": "Object_0",
      "primitives": [
        {
          "attributes": {
            "NORMAL": 1,
            "POSITION": 0,
            "TEXCOORD_0": 2
          },
          "indices": 3,
          "material": 0,
          "mode": 4
        }
      ]
    },
    {
      "name": "Object_1",
      "primitives": [
        {
          "attributes": {
            "NORMAL": 5,
            "POSITION": 4,
            "TEXCOORD_0": 6
          },
          "indices": 7,
          "material": 1,
          "mode": 4
        }
      ]
    },
    {
      "name": "Object_2",
      "primitives": [
        {
          "attributes": {
            "NORMAL": 9,
            "POSITION": 8,
            "TEXCOORD_0": 10
          },
          "indices": 11,
          "material": 2,
          "mode": 4
        }
      ]
    },
    {
      "name": "Object_3",
      "primitives": [
        {
          "attributes": {
            "NORMAL": 13,
            "POSITION": 12,
            "TEXCOORD_0": 14
          },
          "indices": 15,
          "material": 3,
          "mode": 4
        }
      ]
    },
    {
      "name": "Object_4",
      "primitives": [
        {
          "attributes": {
            "NORMAL": 17,
            "POSITION": 16,
            "TEXCOORD_0": 18
          },
          "indices": 19,
          "material": 4,
          "mode": 4
        }
      ]
    }
  ],
  "nodes": [
    {
      "children": [
        1
      ],
      "matrix": [
        1.0,
        0.0,
        0.0,
        0.0,
        0.0,
        2.220446049250313e-16,
        -1.0,
        0.0,
        0.0,
        1.0,
        2.220446049250313e-16,
        0.0,
        0.0,
        0.0,
        0.0,
        1.0
      ],
      "name": "Sketchfab_model"
    },
    {
      "children": [
        2,
        3,
        4,
        5,
        6
      ],
      "name": "export.obj.cleaner.materialmerger.gles"
    },
    {
      "mesh": 0,
      "name": "Object_2"
    },
    {
      "mesh": 1,
      "name": "Object_3"
    },
    {
      "mesh": 2,
      "name": "Object_4"
    },
    {
      "mesh": 3,
      "name": "Object_5"
    },
    {
      "mesh": 4,
      "name": "Object_6"
    }
  ],
  "samplers": [
    {
      "magFilter": 9729,
      "minFilter": 9987,
      "wrapS": 10497,
      "wrapT": 10497
    }
  ],
  "scene": 0,
  "scenes": [
    {
      "name": "Sketchfab_Scene",
      "nodes": [
        0
      ]
    }
  ],
  "textures": [
    {
      "sampler": 0,
      "source": 0
    },
    {
      "sampler": 0,
      "source": 1
    },
    {
      "sampler": 0,
      "source": 2
    },
    {
      "sampler": 0,
      "source": 3
    },
    {
      "sampler": 0,
      "source": 4
    }
  ]
}
